<svg width="112" height="118" viewBox="0 0 112 118" fill="none" xmlns="http://www.w3.org/2000/svg">
<path d="M81.44 32.8219C83.8202 30.3322 83.8202 26.2778 81.44 23.7832L72.6985 14.5674L72.7125 14.5772L60.7927 2.0303C59.5081 0.717183 57.7858 -0.0118175 55.9965 0.000144927C54.2073 0.0121073 52.4939 0.764077 51.2252 2.09427L1.98725 53.9794C1.35747 54.6392 0.85768 55.4239 0.516628 56.2882C0.175577 57.1524 0 58.0793 0 59.0154C0 59.9514 0.175577 60.8783 0.516628 61.7426C0.85768 62.6068 1.35747 63.3915 1.98725 64.0513L51.2205 115.912C52.4895 117.249 54.2102 118 56.0043 118C57.7984 118 59.5191 117.249 60.7881 115.912L81.4306 94.1639C81.9954 93.571 82.4435 92.8663 82.7492 92.0903C83.055 91.3143 83.2124 90.4824 83.2124 89.6421C83.2124 88.8018 83.055 87.9698 82.7492 87.1939C82.4435 86.4179 81.9954 85.7132 81.4306 85.1203C80.2895 83.9244 78.7459 83.2532 77.1369 83.2532C75.5279 83.2532 73.9843 83.9244 72.8432 85.1203L57.2084 101.623C57.058 101.785 56.8783 101.914 56.68 102.002C56.4816 102.091 56.2685 102.136 56.0533 102.136C55.8381 102.136 55.625 102.091 55.4266 102.002C55.2283 101.914 55.0486 101.785 54.8982 101.623L15.5685 60.1987C15.4146 60.0401 15.2922 59.8507 15.2087 59.6416C15.1252 59.4325 15.0821 59.2078 15.0821 58.9809C15.0821 58.754 15.1252 58.5294 15.2087 58.3202C15.2922 58.1111 15.4146 57.9217 15.5685 57.7631L54.8842 16.3338C54.9308 16.2846 54.9962 16.2452 55.0475 16.1911C55.3575 15.9269 55.7505 15.7954 56.1483 15.8227C56.5461 15.8501 56.9195 16.0343 57.1944 16.3387L72.8478 32.8219C73.4115 33.4177 74.081 33.8904 74.8182 34.213C75.5554 34.5355 76.3458 34.7016 77.1439 34.7016C77.9421 34.7016 78.7324 34.5355 79.4696 34.213C80.2068 33.8904 80.8764 33.4177 81.44 32.8219ZM42.9597 59.2737C42.9597 62.9882 44.3604 66.5507 46.8535 69.1773C49.3467 71.8038 52.7281 73.2794 56.254 73.2794C59.7798 73.2794 63.1613 71.8038 65.6544 69.1773C68.1476 66.5507 69.5482 62.9882 69.5482 59.2737C69.5482 55.5591 68.1476 51.9967 65.6544 49.3701C63.1613 46.7435 59.7798 45.2679 56.254 45.2679C52.7281 45.2679 49.3467 46.7435 46.8535 49.3701C44.3604 51.9967 42.9597 55.5591 42.9597 59.2737ZM110.017 54.186L94.6432 38.0522C93.5012 36.8544 91.9551 36.1832 90.3443 36.186C88.7334 36.1888 87.1893 36.8652 86.0511 38.067C85.4864 38.6599 85.0382 39.3646 84.7325 40.1405C84.4267 40.9165 84.2693 41.7485 84.2693 42.5888C84.2693 43.429 84.4267 44.261 84.7325 45.037C85.0382 45.813 85.4864 46.5176 86.0511 47.1106L96.4307 58.0436C97.0841 58.7275 97.0841 59.7952 96.4307 60.4792L86.2004 71.2547C85.6364 71.8476 85.1889 72.5519 84.8835 73.3275C84.5782 74.103 84.421 74.9344 84.421 75.7741C84.421 76.6138 84.5782 77.4452 84.8835 78.2207C85.1889 78.9962 85.6364 79.7006 86.2004 80.2934C87.3416 81.4893 88.8852 82.1605 90.4942 82.1605C92.1031 82.1605 93.6468 81.4893 94.7879 80.2934L110.021 64.2531C110.649 63.5919 111.147 62.8065 111.487 61.942C111.827 61.0775 112.001 60.1508 112 59.215C111.999 58.2793 111.823 57.353 111.482 56.4892C111.141 55.6253 110.641 54.841 110.012 54.1811L110.017 54.186Z" fill="#F24E1E"/>
</svg>
