<svg width="107" height="107" viewBox="0 0 107 107" fill="none" xmlns="http://www.w3.org/2000/svg">
<path d="M19.709 90.8342L12.2087 6.67871H94.6512L87.1409 90.8209L53.3799 100.181L19.709 90.8342Z" fill="#1572B6"/>
<path d="M53.43 93.0283L80.7127 85.4646L87.1309 13.5613H53.43V93.0283Z" fill="#33A9DC"/>
<path d="M53.43 44.0497H67.088L68.0297 33.4806H53.43V23.1586H79.3101L79.063 25.9269L76.5284 54.3717H53.43V44.0497Z" fill="white"/>
<path d="M53.4934 70.8549L53.4467 70.8683L41.9526 67.7627L41.2179 59.5311H30.8558L32.3018 75.7371L53.4433 81.6077L53.4934 81.5944V70.8549Z" fill="#EBEBEB"/>
<path d="M66.2098 53.9343L64.9675 67.756L53.4567 70.8616V81.601L74.615 75.7371L74.7719 73.9939L76.5652 53.9343H66.2098Z" fill="white"/>
<path d="M53.4667 23.1586V33.4806H28.535L28.328 31.1597L27.8571 25.9269L27.61 23.1586H53.4667ZM53.43 44.0497V54.3717H42.0795L41.8724 52.0508L41.4049 46.818L41.1578 44.0497H53.43Z" fill="#EBEBEB"/>
</svg>

