<svg width="82" height="94" viewBox="0 0 82 94" fill="none" xmlns="http://www.w3.org/2000/svg">
<path d="M81.8541 0.739136L74.4103 84.4005L40.9501 93.7069L7.58202 84.4134L0.145935 0.739136H81.8541Z" fill="#E44D26"/>
<path d="M41.0001 86.5933L68.0376 79.0732L74.3985 7.58057H41.0001V86.5933Z" fill="#F16529"/>
<path d="M26.5295 28.1056H41.0001V17.8433H15.3506L15.5953 20.5964L18.1095 48.8766H41.0001V38.6143H27.4644L26.5295 28.1056V28.1056ZM28.8349 54.008H18.5666L19.9995 70.1213L40.953 75.9567L41.0001 75.9438V65.2667L40.9552 65.2786L29.5633 62.1925L28.8349 54.008Z" fill="#EBEBEB"/>
<path d="M40.9648 48.8766H53.5607L52.3731 62.1861L40.9645 65.2754V75.9519L61.9346 70.1213L62.0883 68.3875L64.4924 41.3701L64.7419 38.6143H40.9648V48.8766ZM40.9648 28.0805V28.1056H65.6726L65.8776 25.7991L66.3439 20.5964L66.5883 17.8433H40.9648V28.0808V28.0805Z" fill="white"/>
</svg>
