<svg width="107" height="107" viewBox="0 0 107 107" fill="none" xmlns="http://www.w3.org/2000/svg">
<g clip-path="url(#clip0_138_38)">
<path d="M0 0H106.86V106.86H0V0Z" fill="#F7DF1E"/>
<path d="M28.0975 89.2998L36.2748 84.3508C37.8526 87.148 39.2877 89.5148 42.7302 89.5148C46.0299 89.5148 48.1107 88.2241 48.1107 83.2034V49.0591H58.1526V83.3453C58.1526 93.7462 52.0558 98.4806 43.1605 98.4806C35.1273 98.4806 30.4642 94.3201 28.097 89.299L28.0975 89.2998ZM63.6071 88.2237L71.7835 83.4897C73.9362 87.0048 76.7338 89.587 81.6827 89.587C85.844 89.587 88.4971 87.5065 88.4971 84.6372C88.4971 81.1943 85.7713 79.9746 81.1805 77.9668L78.6706 76.8899C71.4254 73.8064 66.6196 69.9327 66.6196 61.7554C66.6196 54.2235 72.3579 48.4847 81.3246 48.4847C87.7086 48.4847 92.2994 50.7088 95.5987 56.5189L87.7796 61.5404C86.0577 58.4561 84.1935 57.2368 81.3241 57.2368C78.383 57.2368 76.5179 59.1019 76.5179 61.5404C76.5179 64.553 78.383 65.7731 82.6866 67.6381L85.197 68.7138C93.7332 72.3725 98.539 76.1022 98.539 84.494C98.539 93.5329 91.4378 98.4818 81.8977 98.4818C72.5729 98.4818 66.5474 94.0346 63.6067 88.2241" fill="black"/>
</g>
<defs>
<clipPath id="clip0_138_38">
<rect width="106.86" height="106.86" fill="white"/>
</clipPath>
</defs>
</svg>
