<svg width="45" height="45" viewBox="0 0 200 200" fill="none" xmlns="http://www.w3.org/2000/svg">
<g clip-path="url(#clip0_252_6)">
<path d="M195 174.3C195.6 174.3 196.2 174.3 196.8 174.3V175.8C194 176.2 190.85 176.4 187.35 176.4C183.95 176.4 179.7 175.65 174.6 174.15C169.6 172.65 165.05 169.85 160.95 165.75C152.55 157.35 147.45 146.45 145.65 133.05L136.5 66.3L105.3 136.8C102.5 142.9 100.8 148 100.2 152.1H98.7L59.85 67.65L53.25 142.2C53.05 143.9 53.55 145.4 54.75 146.7C56.05 148 57.45 148.65 58.95 148.65H61.35V150H32.25V148.5H34.65C37.35 148.5 39.7 147.7 41.7 146.1C43.8 144.4 45.1 142.2 45.6 139.5L55.05 57.6C46.25 40.3 35.7 31.65 23.4 31.65C22.3 31.65 21.15 31.7 19.95 31.8V30.3C22.65 29.6 24.85 29.25 26.55 29.25C28.25 29.25 30.1 29.35 32.1 29.55C34.1 29.65 36.45 30.1 39.15 30.9C41.85 31.7 44.4 32.9 46.8 34.5C49.2 36 51.3 37.6 53.1 39.3C54.9 40.9 56.6 42.7 58.2 44.7C60.9 48.3 63.05 51.75 64.65 55.05L100.8 133.35L141.15 42.9H142.5L156.45 131.7C158.55 145.7 163.05 156.3 169.95 163.5C176.95 170.7 185.3 174.3 195 174.3Z" fill="#64ffda"/>
<circle cx="100" cy="100" r="94.5" stroke="#676f85" stroke-width="7"/>
</g>
<defs>
<clipPath id="clip0_252_6">
<rect width="200" height="200" fill="white"/>
</clipPath>
</defs>
</svg>
