<svg width="102" height="102" viewBox="0 0 102 102" fill="none" xmlns="http://www.w3.org/2000/svg">
<g clip-path="url(#clip0_140_103)">
<path d="M47.6595 0.0257871C47.4385 0.0470371 46.7415 0.119287 46.1125 0.166037C31.6285 1.47504 18.0625 9.29079 9.4605 21.3055C4.71028 27.9004 1.62231 35.5445 0.459 43.5883C0.051 46.3933 0 47.2178 0 51.0173C0 54.8168 0.051 55.6455 0.459 58.4463C3.23 77.601 16.864 93.6915 35.3473 99.6543C38.658 100.721 42.1473 101.448 46.1125 101.89C47.6595 102.06 54.3405 102.06 55.8875 101.89C62.7342 101.129 68.5397 99.4333 74.2602 96.5135C75.14 96.0673 75.31 95.944 75.191 95.8463C72.3928 92.1561 69.6231 88.4443 66.8823 84.7113L58.7265 73.691L48.5095 58.5653C45.11 53.5061 41.6788 48.4684 38.216 43.4523C38.1777 43.4395 38.1395 50.1588 38.1182 58.3698C38.0885 72.7348 38.0757 73.3128 37.8972 73.6528C37.7231 74.0496 37.4125 74.3708 37.0218 74.558C36.703 74.7195 36.4267 74.7493 34.918 74.7493H33.1925L32.7335 74.4603C32.4495 74.281 32.219 74.0285 32.0662 73.7293L31.8538 73.283L31.875 53.291L31.9048 33.2905L32.215 32.8995C32.4239 32.6551 32.6742 32.4494 32.9545 32.2918C33.3625 32.092 33.5197 32.075 35.2495 32.075C37.281 32.075 37.621 32.1515 38.148 32.7295C38.2967 32.891 43.8302 41.2295 50.4518 51.268L70.5713 81.749L78.6462 93.9805L79.0585 93.7128C82.9447 91.1292 86.468 88.0375 89.5347 84.52C95.9614 77.1645 100.13 68.1114 101.541 58.4463C101.949 55.6413 102 54.8168 102 51.0173C102 47.2178 101.949 46.3933 101.541 43.5883C98.77 24.4378 85.136 8.34304 66.6527 2.38029C63.1983 1.28196 59.6412 0.53722 56.0363 0.157537C55.0758 0.0555371 48.4883 -0.0549629 47.6637 0.0300371L47.6595 0.0257871ZM68.5398 30.8808C68.7768 31.0001 68.9878 31.1653 69.1607 31.3666C69.3335 31.5679 69.4648 31.8015 69.547 32.0538C69.6235 32.3088 69.6448 37.855 69.6235 50.35L69.5938 68.2765L66.436 63.4315L63.2655 58.5865V45.556C63.2655 37.1283 63.3038 32.3938 63.3633 32.1643C63.434 31.8988 63.5579 31.6505 63.7273 31.4342C63.8968 31.218 64.1084 31.0384 64.3493 30.9063C64.7615 30.6938 64.9102 30.6768 66.4743 30.6768C67.949 30.6768 68.2083 30.698 68.5398 30.8765V30.8808Z" fill="#F8F8F8"/>
</g>
<defs>
<clipPath id="clip0_140_103">
<rect width="102" height="102" fill="white"/>
</clipPath>
</defs>
</svg>
