<svg width="175" height="107" viewBox="0 0 175 107" fill="none" xmlns="http://www.w3.org/2000/svg">
<g clip-path="url(#clip0_138_62)">
<path d="M86.1395 106.552C85.5497 106.552 84.999 106.395 84.4875 106.119L79.2565 103.012C78.4697 102.579 78.8631 102.422 79.0993 102.343C80.1611 101.989 80.3578 101.91 81.4591 101.282C81.5771 101.203 81.7347 101.242 81.8525 101.321L85.8645 103.72C86.0217 103.799 86.2184 103.799 86.3362 103.72L102.03 94.6341C102.187 94.5555 102.266 94.398 102.266 94.2016V76.0694C102.266 75.8724 102.187 75.7155 102.03 75.6366L86.3362 66.5902C86.1789 66.5113 85.9822 66.5113 85.8645 66.5902L70.1707 75.6366C70.0135 75.7152 69.9345 75.9119 69.9345 76.0691V94.2013C69.9345 94.3588 70.0135 94.5552 70.1707 94.6341L74.458 97.112C76.7787 98.2919 78.2339 96.9153 78.2339 95.5387V77.6424C78.2339 77.4066 78.4306 77.1704 78.7059 77.1704H80.7117C80.9479 77.1704 81.1837 77.3671 81.1837 77.6424V95.5387C81.1837 98.6458 79.4924 100.455 76.5425 100.455C75.6379 100.455 74.9301 100.455 72.9239 99.4718L68.7941 97.112C67.7715 96.5222 67.1422 95.4206 67.1422 94.2407V76.1086C67.1422 74.9287 67.7715 73.8271 68.7941 73.2373L84.4875 64.1515C85.4711 63.6009 86.8085 63.6009 87.7917 64.1515L103.485 73.2373C104.508 73.8271 105.137 74.9287 105.137 76.1086V94.2407C105.137 95.4206 104.508 96.5222 103.485 97.112L87.7917 106.198C87.2802 106.434 86.6904 106.552 86.1398 106.552H86.1395ZM90.9774 94.0835C84.0945 94.0835 82.6784 90.9369 82.6784 88.2624C82.6784 88.0262 82.8751 87.7903 83.1504 87.7903H85.1958C85.4316 87.7903 85.6283 87.9476 85.6283 88.1838C85.9431 90.2682 86.8477 91.2909 91.0169 91.2909C94.3207 91.2909 95.7371 90.5435 95.7371 88.7735C95.7371 87.7509 95.3434 87.0039 90.1909 86.4924C85.9036 86.0595 83.2291 85.1158 83.2291 81.6939C83.2291 78.5078 85.9039 76.6197 90.3876 76.6197C95.422 76.6197 97.9002 78.3506 98.215 82.1261C98.215 82.2445 98.1755 82.3623 98.0969 82.4804C98.0179 82.559 97.9002 82.6376 97.7821 82.6376H95.7368C95.5401 82.6376 95.3434 82.4804 95.3042 82.2837C94.8322 80.1206 93.6128 79.4124 90.3876 79.4124C86.769 79.4124 86.3362 80.6712 86.3362 81.6149C86.3362 82.7557 86.8477 83.1096 91.7248 83.7389C96.5627 84.3684 98.8442 85.273 98.8442 88.6554C98.8047 92.1168 95.9729 94.0835 90.9774 94.0835Z" fill="#539E43"/>
<path d="M37.446 35.6355C37.446 34.9276 37.0526 34.2586 36.4233 33.9046L19.7464 24.3077C19.4707 24.1501 19.1563 24.0715 18.8418 24.032H18.6843C18.3698 24.032 18.055 24.1501 17.7797 24.3077L1.10273 33.9046C0.473146 34.2586 0.0800781 34.9273 0.0800781 35.6355L0.119555 61.4374C0.119555 61.7913 0.316259 62.1453 0.630713 62.3028C0.945507 62.4995 1.33857 62.4995 1.61423 62.3028L11.526 56.6389C12.1552 56.285 12.5487 55.6162 12.5487 54.9084V42.8332C12.5487 42.1254 12.9417 41.4566 13.5713 41.1027L17.7797 38.664C18.0945 38.4673 18.4484 38.3883 18.8023 38.3883C19.1563 38.3883 19.5102 38.4673 19.7859 38.664L23.9942 41.1027C24.6238 41.4566 25.0169 42.125 25.0169 42.8332V54.9084C25.0169 55.6162 25.4103 56.285 26.0395 56.6389L35.9513 62.3028C36.1044 62.3992 36.2817 62.4504 36.4626 62.4504C36.6436 62.4504 36.8208 62.3992 36.974 62.3028C37.2888 62.1453 37.4855 61.7913 37.4855 61.4374L37.446 35.6355ZM117.606 0.118175C117.291 -0.0393918 116.898 -0.0393918 116.622 0.118175C116.308 0.314879 116.111 0.629333 116.111 0.983264V26.5497C116.111 26.7855 115.993 27.0214 115.757 27.1789C115.521 27.2967 115.285 27.2967 115.049 27.1789L110.88 24.7797C110.574 24.6056 110.229 24.5141 109.877 24.5141C109.525 24.5141 109.179 24.6056 108.874 24.7797L92.1967 34.4161C91.5675 34.7701 91.1741 35.4388 91.1741 36.1466V55.3801C91.1741 56.0879 91.5675 56.757 92.1967 57.1109L108.874 66.7474C109.179 66.9214 109.525 67.0129 109.877 67.0129C110.229 67.0129 110.574 66.9214 110.88 66.7474L127.557 57.1109C128.186 56.757 128.579 56.0883 128.579 55.3801V7.434C128.579 6.68666 128.186 6.01827 127.557 5.664L117.606 0.118175H117.606ZM116.072 49.0478C116.072 49.2445 115.993 49.4017 115.836 49.4803L110.133 52.7841C110.053 52.823 109.965 52.8432 109.877 52.8432C109.788 52.8432 109.701 52.823 109.621 52.7841L103.918 49.4803C103.76 49.4017 103.682 49.205 103.682 49.0478V42.4398C103.682 42.2431 103.76 42.0859 103.918 42.0073L109.621 38.7031C109.701 38.6643 109.788 38.6441 109.877 38.6441C109.965 38.6441 110.053 38.6643 110.133 38.7031L115.836 42.0073C115.993 42.0855 116.072 42.2826 116.072 42.4398V49.0478ZM173.104 42.2826C173.733 41.9286 174.087 41.2599 174.087 40.5517V35.8713C174.087 35.1635 173.694 34.4947 173.104 34.1408L156.545 24.5438C156.239 24.3698 155.893 24.2783 155.542 24.2783C155.19 24.2783 154.844 24.3698 154.539 24.5438L137.862 34.1799C137.232 34.5339 136.839 35.2026 136.839 35.9105V55.1442C136.839 55.8521 137.232 56.5208 137.862 56.8747L154.421 66.3145C155.05 66.6684 155.797 66.6684 156.388 66.3145L166.417 60.7299C166.732 60.5723 166.929 60.2184 166.929 59.8644C166.929 59.5105 166.732 59.1566 166.417 58.999L149.661 49.3626C149.347 49.1659 149.15 48.8514 149.15 48.4975V42.4796C149.15 42.1257 149.347 41.7718 149.661 41.6142L154.893 38.6248C155.046 38.5285 155.223 38.4773 155.404 38.4773C155.585 38.4773 155.762 38.5285 155.915 38.6248L161.147 41.6142C161.461 41.8109 161.658 42.1254 161.658 42.4796V47.1995C161.658 47.5534 161.854 47.9074 162.169 48.0646C162.322 48.161 162.5 48.2121 162.681 48.2121C162.861 48.2121 163.039 48.161 163.192 48.0646L173.104 42.2826Z" fill="#333333"/>
<path d="M155.286 41.3779C155.344 41.3394 155.413 41.3188 155.483 41.3188C155.553 41.3188 155.621 41.3394 155.679 41.3779L158.865 43.2265C158.983 43.3054 159.062 43.4232 159.062 43.5804V47.278C159.062 47.4352 158.984 47.5533 158.865 47.6319L155.679 49.4805C155.621 49.519 155.553 49.5395 155.483 49.5395C155.413 49.5395 155.344 49.519 155.286 49.4805L152.1 47.6319C151.982 47.5533 151.904 47.4352 151.904 47.278V43.5807C151.904 43.4232 151.982 43.3051 152.1 43.2268L155.286 41.3779Z" fill="#539E43"/>
<path d="M81.9311 34.18L65.2936 24.6225C65.1301 24.5399 64.9587 24.474 64.7821 24.4258L46.1384 56.364C46.2929 56.5525 46.4794 56.7123 46.6894 56.836L63.3269 66.3938C63.7989 66.6691 64.3495 66.7478 64.8607 66.5902L82.3639 34.5737C82.2458 34.4165 82.0883 34.2981 81.9311 34.1803V34.18Z" fill="url(#paint0_linear_138_62)"/>
<path fill-rule="evenodd" clip-rule="evenodd" d="M62.7762 21.1216L62.5404 21.2397H62.8549L62.7762 21.1216Z" fill="url(#paint1_linear_138_62)"/>
<path fill-rule="evenodd" clip-rule="evenodd" d="M81.9706 56.796C82.4426 56.5207 82.7965 56.0487 82.9541 55.5375L64.7031 24.3861C64.2311 24.3075 63.7196 24.3467 63.2874 24.622L46.7677 34.1407L64.5851 66.6292C64.8442 66.5867 65.0959 66.5073 65.3324 66.3933L81.9702 56.7963L81.9706 56.796Z" fill="url(#paint2_linear_138_62)"/>
<path fill-rule="evenodd" clip-rule="evenodd" d="M83.5047 56.4816L83.3866 56.2849V56.5602L83.5043 56.4816H83.5047Z" fill="url(#paint3_linear_138_62)"/>
<path fill-rule="evenodd" clip-rule="evenodd" d="M81.9706 56.796L65.3722 66.3539C65.1379 66.4733 64.8853 66.553 64.6249 66.5897L64.9397 67.1798L83.3471 56.521V56.2849L82.8751 55.498C82.7965 56.0487 82.4426 56.5207 81.9706 56.796Z" fill="url(#paint4_linear_138_62)"/>
<path fill-rule="evenodd" clip-rule="evenodd" d="M81.9706 56.796L65.3722 66.3539C65.1379 66.4733 64.8853 66.553 64.6249 66.5897L64.9397 67.1798L83.3471 56.521V56.2849L82.8751 55.498C82.7965 56.0487 82.4426 56.5207 81.9706 56.796Z" fill="url(#paint5_linear_138_62)"/>
</g>
<defs>
<linearGradient id="paint0_linear_138_62" x1="61.8157" y1="47.7318" x2="107.272" y2="23.0353" gradientUnits="userSpaceOnUse">
<stop offset="0.1376" stop-color="#41873F"/>
<stop offset="0.4032" stop-color="#54A044"/>
<stop offset="0.7136" stop-color="#66B848"/>
<stop offset="0.9081" stop-color="#6CC04A"/>
</linearGradient>
<linearGradient id="paint1_linear_138_62" x1="48.6611" y1="21.1374" x2="79.2943" y2="21.1374" gradientUnits="userSpaceOnUse">
<stop offset="0.09192" stop-color="#6CC04A"/>
<stop offset="0.2864" stop-color="#66B848"/>
<stop offset="0.5968" stop-color="#54A044"/>
<stop offset="0.8624" stop-color="#41873F"/>
</linearGradient>
<linearGradient id="paint2_linear_138_62" x1="45.1795" y1="45.4885" x2="83.4965" y2="45.4885" gradientUnits="userSpaceOnUse">
<stop offset="0.09192" stop-color="#6CC04A"/>
<stop offset="0.2864" stop-color="#66B848"/>
<stop offset="0.5968" stop-color="#54A044"/>
<stop offset="0.8624" stop-color="#41873F"/>
</linearGradient>
<linearGradient id="paint3_linear_138_62" x1="71.9156" y1="56.3846" x2="83.4196" y2="56.3846" gradientUnits="userSpaceOnUse">
<stop offset="0.09192" stop-color="#6CC04A"/>
<stop offset="0.2864" stop-color="#66B848"/>
<stop offset="0.5968" stop-color="#54A044"/>
<stop offset="0.8624" stop-color="#41873F"/>
</linearGradient>
<linearGradient id="paint4_linear_138_62" x1="45.1797" y1="61.3711" x2="83.4964" y2="61.3711" gradientUnits="userSpaceOnUse">
<stop offset="0.09192" stop-color="#6CC04A"/>
<stop offset="0.2864" stop-color="#66B848"/>
<stop offset="0.5968" stop-color="#54A044"/>
<stop offset="0.8624" stop-color="#41873F"/>
</linearGradient>
<linearGradient id="paint5_linear_138_62" x1="89.0786" y1="30.8415" x2="79.3715" y2="81.7064" gradientUnits="userSpaceOnUse">
<stop stop-color="#41873F"/>
<stop offset="0.3288" stop-color="#418B3D"/>
<stop offset="0.6352" stop-color="#419637"/>
<stop offset="0.9319" stop-color="#3FA92D"/>
<stop offset="1" stop-color="#3FAE2A"/>
</linearGradient>
<clipPath id="clip0_138_62">
<rect width="174.246" height="106.86" fill="white"/>
</clipPath>
</defs>
</svg>
