<svg width="121" height="107" viewBox="0 0 121 107" fill="none" xmlns="http://www.w3.org/2000/svg">
<g clip-path="url(#clip0_138_36)">
<path d="M98.6601 34.6C97.3832 34.1619 96.0955 33.7561 94.7982 33.3829C95.0161 32.4924 95.2167 31.6126 95.3948 30.7484C98.3185 16.5562 96.4072 5.12263 89.8789 1.35816C83.6196 -2.2507 73.3831 1.51236 63.0449 10.5097C62.026 11.398 61.0297 12.3119 60.057 13.2505C59.4058 12.6264 58.7431 12.0143 58.0693 11.4147C47.2343 1.79451 36.3739 -2.26008 29.8527 1.51517C23.599 5.13529 21.7472 15.8836 24.3794 29.3339C24.6412 30.666 24.9369 31.9912 25.2661 33.3083C23.7288 33.7452 22.2455 34.2101 20.8258 34.705C8.12261 39.1341 0.0101624 46.0748 0.0101624 53.2743C0.0101624 60.7099 8.71924 68.1681 21.9502 72.6904C23.0228 73.0556 24.1044 73.3939 25.194 73.7051C24.8401 75.1237 24.526 76.5519 24.2519 77.988C21.7426 91.2048 23.7021 101.699 29.9389 105.296C36.3805 109.011 47.1921 105.193 57.7192 95.9906C58.5728 95.2424 59.4077 94.4731 60.2229 93.6833C61.2763 94.6996 62.3578 95.6864 63.4662 96.6425C73.6638 105.417 83.7349 108.96 89.9656 105.353C96.4011 101.628 98.4928 90.3542 95.7773 76.6382C95.5633 75.5636 95.3235 74.4944 95.0578 73.4314C95.8171 73.2065 96.5623 72.9749 97.2888 72.734C111.044 68.177 119.993 60.8093 119.993 53.2743C119.993 46.0486 111.619 39.061 98.6601 34.6ZM95.677 67.8691C95.0208 68.0861 94.3478 68.2956 93.6616 68.4995C92.1431 63.6922 90.094 58.5807 87.5861 53.2991C89.9792 48.1436 91.9495 43.0973 93.4254 38.3214C94.6529 38.6766 95.8438 39.0511 96.9921 39.4462C108.095 43.2688 114.868 48.9197 114.868 53.2743C114.868 57.9124 107.553 63.9335 95.677 67.8691ZM90.7492 77.6336C91.95 83.6984 92.1211 89.182 91.3257 93.4691C90.6114 97.3212 89.1744 99.8891 87.3972 100.918C83.6163 103.107 75.5301 100.262 66.8093 92.7571C65.7784 91.8682 64.7724 90.9508 63.7924 90.006C67.1735 86.3085 70.5522 82.0102 73.8499 77.2362C79.6503 76.7216 85.1302 75.8798 90.0996 74.7311C90.339 75.6933 90.5556 76.6611 90.7492 77.6336ZM40.915 100.54C37.2208 101.844 34.2784 101.881 32.4998 100.856C28.7152 98.6733 27.1418 90.2469 29.2879 78.9441C29.543 77.6085 29.8351 76.2802 30.1639 74.9607C35.0785 76.0481 40.5185 76.8298 46.3325 77.3013C49.6527 81.9727 53.1289 86.2663 56.6323 90.0261C55.8878 90.7465 55.1256 91.4485 54.3465 92.1314C49.6911 96.2005 45.0263 99.0876 40.915 100.54ZM23.6084 67.8405C17.7578 65.8406 12.9262 63.2418 9.61443 60.4058C6.63829 57.8575 5.13616 55.3271 5.13616 53.2743C5.13616 48.9052 11.6495 43.3325 22.5131 39.5451C23.8315 39.0858 25.2113 38.6523 26.6431 38.2454C28.1448 43.1291 30.1142 48.2354 32.4909 53.3989C30.0833 58.6388 28.0857 63.8267 26.5695 68.768C25.575 68.4831 24.5877 68.1739 23.6084 67.8405ZM29.4098 28.3492C27.1549 16.8257 28.6524 8.13299 32.4211 5.95126C36.4349 3.62753 45.3108 6.94066 54.6662 15.2476C55.2762 15.7905 55.8764 16.3444 56.4664 16.9091C52.9803 20.6525 49.536 24.9142 46.2454 29.5579C40.6024 30.081 35.2008 30.9209 30.2346 32.0462C29.9287 30.8211 29.6536 29.5886 29.4098 28.3497V28.3492ZM81.1651 41.1293C79.9921 39.1031 78.7756 37.1025 77.5164 35.1287C81.3446 35.6129 85.0125 36.2554 88.4569 37.0409C87.423 40.3555 86.1341 43.8204 84.617 47.3731C83.508 45.269 82.3572 43.1873 81.1651 41.1293ZM60.0593 20.5723C62.4234 23.1337 64.7912 25.9931 67.1201 29.0958C62.3957 28.8727 57.6635 28.8717 52.9391 29.093C55.2703 26.0189 57.6583 23.1632 60.0593 20.5723ZM38.8181 41.1644C37.6409 43.2059 36.5116 45.2746 35.4309 47.3689C33.9387 43.8289 32.6615 40.348 31.6187 36.9866C35.0419 36.2207 38.6925 35.5946 42.4963 35.1193C41.2231 37.1051 39.9967 39.1206 38.8181 41.1639V41.1644ZM42.6056 71.7938C38.6756 71.3552 34.9702 70.7613 31.5479 70.0161C32.6071 66.5947 33.9124 63.0398 35.437 59.4239C36.522 61.5196 37.656 63.5896 38.8383 65.6321C40.054 67.7318 41.3129 69.7883 42.6056 71.7938ZM60.2009 86.3371C57.7712 83.7162 55.3481 80.8165 52.9817 77.6979C55.2792 77.7878 57.6212 77.8338 60.0017 77.8338C62.4473 77.8338 64.8648 77.7789 67.2443 77.673C64.9079 80.8479 62.549 83.7518 60.2009 86.3371ZM84.6652 59.2392C86.2691 62.8949 87.6208 66.4312 88.694 69.794C85.2155 70.5879 81.4594 71.2272 77.5019 71.702C78.77 69.6916 79.9981 67.6562 81.1853 65.5969C82.3923 63.5038 83.5526 61.384 84.6652 59.2392ZM76.7454 63.036C74.928 66.1932 73.0083 69.2905 70.9895 72.323C67.3326 72.582 63.6677 72.7106 60.0017 72.7087C56.2677 72.7087 52.6359 72.5925 49.1385 72.3656C47.0671 69.3402 45.1108 66.2375 43.2739 63.0641H43.2744C41.4461 59.9076 39.7384 56.6828 38.1549 53.3966C39.7344 50.1097 41.4369 46.8833 43.2589 43.7244L43.2584 43.7248C45.0797 40.5651 47.0204 37.4756 49.0762 34.4632C52.6443 34.1932 56.3033 34.0526 60.0012 34.0526H60.0017C63.7165 34.0526 67.3802 34.1946 70.9473 34.4665C72.9824 37.4744 74.9107 40.5532 76.7285 43.6972C78.5566 46.8492 80.2817 50.0598 81.9009 53.3239C80.2983 56.6215 78.5787 59.8609 76.7454 63.036ZM87.3189 5.79847C91.3365 8.11565 92.8991 17.4598 90.3747 29.7135C90.2135 30.4953 90.0326 31.2916 89.8358 32.0991C84.8574 30.9499 79.4521 30.0955 73.7927 29.5645C70.496 24.8697 67.0798 20.6014 63.6504 16.9063C64.5492 16.0399 65.4693 15.196 66.41 14.3754C75.2681 6.66695 83.547 3.62331 87.3189 5.79847ZM60.0017 42.5602C65.9188 42.5602 70.7158 47.3571 70.7158 53.2743C70.7158 59.1914 65.9188 63.9884 60.0017 63.9884C54.0846 63.9884 49.2876 59.1914 49.2876 53.2743C49.2876 47.3571 54.0846 42.5602 60.0017 42.5602Z" fill="#00D8FF"/>
</g>
<defs>
<clipPath id="clip0_138_36">
<rect width="120.004" height="106.86" fill="white"/>
</clipPath>
</defs>
</svg>
