<svg width="119" height="107" viewBox="0 0 119 107" fill="none" xmlns="http://www.w3.org/2000/svg">
<g clip-path="url(#clip0_138_79)">
<path d="M73.4071 66.2008L71.1259 70.1625C70.7882 70.7488 70.3019 71.2358 69.7161 71.5743C69.1303 71.9129 68.4657 72.0911 67.7891 72.0911H50.3114C49.6348 72.0911 48.9702 71.9129 48.3844 71.5743C47.7986 71.2358 47.3124 70.7488 46.9746 70.1625L44.6929 66.2008H73.4067H73.4071ZM79.7941 55.1106L75.7715 62.0955H42.329L38.3064 55.1106H79.7941ZM75.9193 44.2657L79.8006 51.0053H38.2999L42.1813 44.2657H75.9193ZM67.7886 34.0137C68.4653 34.0136 69.1301 34.1918 69.7159 34.5303C70.3018 34.8689 70.7881 35.3559 71.1259 35.9423L73.5549 40.1604H44.5457L46.9751 35.9423C47.3128 35.356 47.7991 34.869 48.3849 34.5305C48.9707 34.1919 49.6353 34.0136 50.3119 34.0137H67.7891H67.7886Z" fill="#00435B"/>
<path d="M24.8756 32.1752C22.9395 22.7873 22.5237 15.5868 23.7754 10.3586C24.5197 7.24893 25.88 4.71217 27.9494 2.88161C30.134 0.949309 32.8956 0.00104333 35.9992 0.00104333C41.1183 0.00104333 46.5003 2.3357 52.2512 6.77039C54.5975 8.57957 57.032 10.76 59.5604 13.313C59.7621 13.0542 59.9893 12.8098 60.2429 12.5836C67.3914 6.21378 73.4099 2.25532 78.5578 0.729549C81.6186 -0.178295 84.4922 -0.264713 87.1089 0.616185C89.8715 1.5454 92.0723 3.46749 93.6255 6.15896C96.1883 10.6011 96.8638 16.438 95.9086 23.6454C95.5192 26.5831 94.8535 29.7829 93.9126 33.2503C94.2676 33.293 94.6235 33.372 94.9756 33.4886C104.045 36.4946 110.468 39.7264 114.356 43.4205C116.67 45.6181 118.181 48.0648 118.727 50.7734C119.303 53.6322 118.741 56.4993 117.19 59.1889C114.632 63.625 109.928 67.123 103.228 69.8939C100.537 71.0067 97.4929 72.0144 94.0915 72.9208C94.2467 73.2712 94.3675 73.6433 94.4479 74.0336C96.3839 83.4214 96.7992 90.6219 95.548 95.8502C94.8037 98.9598 93.4429 101.497 91.3735 103.327C89.1894 105.259 86.4273 106.208 83.3242 106.208C78.2047 106.208 72.8231 103.873 67.0722 99.4384C64.7008 97.6097 62.2393 95.4023 59.6817 92.814C59.4124 93.2347 59.0866 93.6165 58.7134 93.9486C51.565 100.319 45.5464 104.277 40.3986 105.803C37.3377 106.711 34.4641 106.797 31.8475 105.916C29.0849 104.987 26.8841 103.065 25.3309 100.374C22.7681 95.9315 22.0925 90.0946 23.0478 82.8872C23.4515 79.8435 24.1517 76.5178 25.1469 72.9051C24.7502 72.8648 24.3591 72.7811 23.9807 72.6556C14.9111 69.6495 8.48835 66.4177 4.60005 62.7236C2.2863 60.526 0.775855 58.0794 0.229476 55.3707C-0.346638 52.512 0.215538 49.6444 1.7664 46.9548C4.32453 42.5192 9.02823 39.0207 15.7288 36.2502C18.4993 35.1041 21.6451 34.0698 25.1696 33.1425C25.0421 32.8298 24.9436 32.506 24.8756 32.1752Z" fill="#002B3B"/>
<path d="M88.12 74.9565C88.5529 74.8798 88.9986 74.9726 89.365 75.2156C89.7313 75.4587 89.99 75.8334 90.0876 76.262L90.0983 76.3141L90.1945 76.8135C93.312 93.2031 91.1158 101.398 83.6063 101.398C76.2595 101.398 66.9064 94.4055 55.5477 80.4198C55.3459 80.1712 55.2179 79.8711 55.1781 79.5534C55.1384 79.2357 55.1886 78.9132 55.323 78.6226C55.4574 78.332 55.6706 78.0849 55.9384 77.9094C56.2062 77.7339 56.5178 77.6371 56.8379 77.6299H56.8909L57.4893 77.634C62.2692 77.66 66.9157 77.4933 71.4294 77.1341C76.7571 76.7099 82.3207 75.9842 88.12 74.9565ZM36.548 62.5672L36.5768 62.616L36.8769 63.1396C39.2822 67.3211 41.7878 71.2898 44.3943 75.0462C47.4644 79.4692 50.9165 83.9471 54.7504 88.4798C55.035 88.8162 55.1789 89.2494 55.1521 89.6892C55.1254 90.129 54.9301 90.5416 54.6068 90.841L54.5636 90.8795L54.178 91.2117C41.491 102.082 33.2451 104.252 29.4404 97.7218C25.7156 91.3302 27.0663 79.7076 33.4913 62.8544C33.6051 62.5558 33.8002 62.295 34.0545 62.1016C34.3088 61.9082 34.6122 61.7898 34.9303 61.7599C35.2485 61.73 35.5686 61.7898 35.8545 61.9325C36.1404 62.0752 36.3806 62.2951 36.548 62.5672ZM94.5576 38.3825L94.6096 38.3997L95.0872 38.5642C110.747 44.0117 116.696 49.9982 112.936 56.5236C109.258 62.9055 98.5653 67.5525 80.8586 70.4637C80.5377 70.5166 80.2084 70.4768 79.9092 70.3492C79.6101 70.2216 79.3535 70.0114 79.1695 69.7432C78.9856 69.475 78.8819 69.1599 78.8706 68.8348C78.8592 68.5098 78.9408 68.1883 79.1056 67.9079C81.6415 63.5936 83.926 59.3015 85.9582 55.0304C88.2626 50.1868 90.4254 44.9874 92.4464 39.4335C92.5932 39.0298 92.8865 38.696 93.2679 38.4985C93.6494 38.301 94.0911 38.2541 94.5056 38.3672L94.5576 38.3825ZM39.2427 35.6399C39.4365 35.7538 39.606 35.9047 39.7415 36.084C39.877 36.2633 39.9758 36.4676 40.0323 36.6851C40.0888 36.9027 40.1019 37.1292 40.0709 37.3518C40.0398 37.5744 39.9652 37.7887 39.8514 37.9825C37.3146 42.2964 35.0306 46.5889 32.9984 50.86C30.6939 55.7036 28.5312 60.9026 26.5101 66.4569C26.3601 66.8694 26.0573 67.2084 25.6644 67.404C25.2715 67.5996 24.8185 67.6368 24.399 67.5079L24.3469 67.4907L23.8693 67.3258C8.20967 61.8787 2.26036 55.8918 6.0209 49.3668C9.69874 42.9845 20.3912 38.3379 38.0979 35.4267C38.4928 35.3616 38.898 35.4369 39.2427 35.6399ZM89.5161 8.80974C93.2409 15.2018 91.8903 26.8245 85.4652 43.6777C85.3514 43.9763 85.1564 44.237 84.902 44.4305C84.6477 44.6239 84.3443 44.7422 84.0262 44.7721C83.7081 44.802 83.3879 44.7422 83.102 44.5995C82.8161 44.4569 82.5759 44.237 82.4085 43.9648L82.3797 43.916L82.0796 43.3924C79.6743 39.2109 77.1687 35.2422 74.5622 31.4859C71.4921 27.0628 68.0401 22.5849 64.2061 18.0522C63.9215 17.7158 63.7776 17.2826 63.8044 16.8428C63.8311 16.403 64.0264 15.9905 64.3497 15.6911L64.3929 15.6525L64.7785 15.3203C77.4656 4.44986 85.7114 2.27967 89.5161 8.80974ZM35.9923 4.92004C43.3396 4.92004 52.6927 11.9124 64.0509 25.898C64.2527 26.1466 64.3808 26.4468 64.4205 26.7645C64.4602 27.0822 64.41 27.4047 64.2756 27.6953C64.1412 27.9859 63.928 28.2329 63.6603 28.4084C63.3925 28.5839 63.0808 28.6808 62.7607 28.688H62.7078L62.1093 28.6843C57.3299 28.6583 52.6829 28.8251 48.1697 29.1842C42.8416 29.6084 37.2779 30.3341 31.4787 31.3618C31.0458 31.4384 30.6002 31.3456 30.2339 31.1025C29.8677 30.8595 29.6091 30.4848 29.5115 30.0563L29.5003 30.0038L29.4042 29.5048C26.2867 13.1148 28.4824 4.92004 35.9923 4.92004Z" fill="#FF4154"/>
<path d="M51.7169 34.2278H66.3874C67.4414 34.2277 68.4768 34.5059 69.3889 35.0341C70.301 35.5623 71.0576 36.3219 71.5821 37.2361L78.9485 50.0714C79.4692 50.9787 79.7432 52.0066 79.7432 53.0528C79.7432 54.0989 79.4692 55.1268 78.9485 56.0342L71.5821 68.8694C71.0575 69.7836 70.3009 70.5432 69.3888 71.0714C68.4767 71.5996 67.4414 71.8777 66.3874 71.8778H51.7169C49.5713 71.8778 47.5898 70.7302 46.5216 68.8694L39.1562 56.0342C38.6355 55.1268 38.3615 54.0989 38.3615 53.0528C38.3615 52.0066 38.6355 50.9787 39.1562 50.0714L46.5221 37.2361C47.0468 36.3219 47.8034 35.5623 48.7156 35.0341C49.6278 34.5059 50.6633 34.2277 51.7173 34.2278H51.7169ZM64.1512 38.1017C66.2977 38.1017 68.2806 39.2507 69.3478 41.1128L74.4845 50.0742C75.0042 50.9809 75.2777 52.0077 75.2777 53.0528C75.2777 54.0978 75.0042 55.1247 74.4845 56.0314L69.3478 64.9927C68.8233 65.9076 68.0666 66.6678 67.1541 67.1965C66.2416 67.7251 65.2057 68.0035 64.1512 68.0034H53.953C51.8066 68.0034 49.8236 66.8549 48.7564 64.9927L43.6197 56.0314C43.1 55.1247 42.8266 54.0978 42.8266 53.0528C42.8266 52.0077 43.1 50.9809 43.6197 50.0742L48.7564 41.1128C49.2809 40.198 50.0375 39.4379 50.9499 38.9092C51.8623 38.3806 52.8981 38.1022 53.9526 38.1022H64.1512V38.1017ZM61.7413 42.3389H56.363C55.3093 42.3389 54.2743 42.6168 53.3624 43.1446C52.4505 43.6723 51.694 44.4313 51.1691 45.3449L48.4549 50.0686C47.9331 50.9766 47.6585 52.0055 47.6585 53.0528C47.6585 54.1 47.9331 55.129 48.4549 56.037L51.1691 60.7611C51.694 61.6747 52.4505 62.4337 53.3624 62.9615C54.2743 63.4893 55.3093 63.7671 56.363 63.7671H61.7413C63.8859 63.7671 65.867 62.6205 66.9351 60.7611L69.6494 56.037C70.1711 55.129 70.4457 54.1 70.4457 53.0528C70.4457 52.0055 70.1711 50.9766 69.6494 50.0686L66.9351 45.3445C66.4103 44.4309 65.6537 43.6719 64.7418 43.1441C63.8299 42.6163 62.7949 42.3384 61.7413 42.3385V42.3389ZM59.421 46.3945C61.5638 46.3945 63.5435 47.5393 64.6121 49.3959L64.9972 50.0649C65.5204 50.9738 65.7957 52.0041 65.7957 53.0528C65.7957 54.1015 65.5204 55.1318 64.9972 56.0407L64.6121 56.7097C64.0869 57.622 63.3305 58.3798 62.4192 58.9067C61.5078 59.4337 60.4737 59.7111 59.421 59.7111H58.6832C57.6305 59.7111 56.5964 59.4337 55.6851 58.9067C54.7737 58.3798 54.0174 57.622 53.4921 56.7097L53.107 56.0407C52.5839 55.1318 52.3085 54.1015 52.3085 53.0528C52.3085 52.0041 52.5839 50.9738 53.107 50.0649L53.4921 49.3959C54.0174 48.4835 54.7737 47.7257 55.6851 47.1988C56.5964 46.6719 57.6305 46.3945 58.6832 46.3945H59.421ZM59.053 50.3896C58.5852 50.3894 58.1255 50.5124 57.7201 50.7461C57.3148 50.9799 56.9781 51.3162 56.7439 51.7212C56.5101 52.126 56.3869 52.5853 56.3869 53.0528C56.3869 53.5203 56.5101 53.9795 56.7439 54.3843C56.978 54.7895 57.3145 55.1258 57.7197 55.3597C58.1249 55.5936 58.5845 55.7167 59.0524 55.7167C59.5202 55.7167 59.9798 55.5936 60.385 55.3597C60.7902 55.1258 61.1267 54.7895 61.3608 54.3843C61.5946 53.9795 61.7178 53.5203 61.7178 53.0528C61.7178 52.5853 61.5946 52.126 61.3608 51.7212C61.1268 51.3163 60.7903 50.9801 60.3852 50.7463C59.9802 50.5126 59.5207 50.3896 59.053 50.3896ZM37.4446 53.0528H42.2393H37.4446Z" fill="#FFD94C"/>
</g>
<defs>
<clipPath id="clip0_138_79">
<rect width="118.956" height="106.86" fill="white"/>
</clipPath>
</defs>
</svg>
