<svg width="107" height="107" viewBox="0 0 107 107" fill="none" xmlns="http://www.w3.org/2000/svg">
<path d="M60.2757 98.8455C60.4159 98.5282 60.7699 98.3078 61.027 98.0407C64.9508 93.9266 68.908 89.8492 72.7783 85.685C73.9894 84.5665 74.9253 83.1829 75.5127 81.6424C76.1002 80.102 76.3232 78.4466 76.1644 76.8056C76.0429 76.1029 75.8835 75.4073 75.6869 74.7219C74.6316 75.7237 73.6499 76.6353 72.6614 77.5536C71.1253 78.9829 69.5959 80.4188 68.0464 81.8314C67.1327 82.7629 65.958 83.3954 64.6773 83.6452C63.3966 83.8951 62.0702 83.7505 60.8734 83.2306C59.6619 82.7855 58.6078 81.9944 57.842 80.9555C57.0762 79.9166 56.6324 78.6756 56.5656 77.3867C56.5297 77.2209 56.4818 77.0579 56.422 76.8991C55.2432 77.9009 54.1145 78.8226 52.9958 79.771L29.7438 99.4733C29.5835 99.6102 29.4099 99.7805 29.2596 99.9141H60.259L60.2122 99.884C60.0453 99.7671 60.1321 99.1527 60.2757 98.8455ZM27.8404 98.8455C28.1161 98.4864 28.4489 98.1751 28.8255 97.9238L61.0037 70.6244C63.1987 68.7611 65.3838 66.8877 67.5589 65.0043C67.8276 64.8169 68.0382 64.5577 68.1666 64.2563C68.6869 61.9892 68.7606 59.6424 68.3837 57.3471C68.0497 57.5809 67.8694 57.681 67.7158 57.8447C65.081 60.2023 62.4596 62.5799 59.8115 64.9241C58.9343 65.807 57.7997 66.389 56.5708 66.5865C55.3419 66.7839 54.0821 66.5865 52.9725 66.0228C51.8404 65.4884 50.893 64.6292 50.2507 63.5546C49.6085 62.4801 49.3005 61.2387 49.366 59.9885V58.9066C48.8817 59.2606 48.5278 59.4977 48.1972 59.7648C35.3183 70.0768 22.4417 80.381 9.56732 90.6774C8.98627 91.1415 8.29168 92.1768 7.5303 91.1716C6.76893 90.1665 7.92769 89.7524 8.51208 89.2849C22.2369 78.2716 35.9684 67.2684 49.7066 56.2752C51.944 54.4819 52.0909 53.7306 50.6349 50.8821L49.7667 51.6969C47.3857 53.9109 44.978 56.0948 42.6338 58.3456C41.6722 59.2731 40.4678 59.9098 39.1598 60.182C37.8518 60.4542 36.4935 60.351 35.2416 59.8841C33.9898 59.4172 32.8955 58.6058 32.0852 57.5436C31.2749 56.4813 30.7815 55.2115 30.6621 53.8808C30.218 54.2148 29.834 54.4585 29.47 54.7424L9.09981 70.5309C8.74848 70.8755 8.34782 71.1659 7.91099 71.3925C7.58131 71.4921 7.22728 71.4744 6.90918 71.3424V99.9308H27.8003C27.7226 99.7591 27.6858 99.5717 27.6928 99.3834C27.6997 99.1951 27.7502 99.011 27.8404 98.8455Z" fill="#FFCEBF"/>
<path d="M84.2758 8.0913C83.7081 9.95133 83.1571 11.8147 82.6595 13.6948C82.1999 15.0234 82.2534 16.4757 82.8094 17.767C83.3654 19.0582 84.3839 20.095 85.6649 20.6741C89.5834 22.7338 93.999 23.659 98.4147 23.3456V8.40854C98.3656 8.08105 98.3838 7.747 98.4681 7.42677C98.5616 7.24562 98.6796 7.0782 98.8187 6.9292H84.2624C84.4862 7.18967 84.4093 7.64716 84.2758 8.0913Z" fill="#FF6196"/>
<path d="M55.0396 40.1794C54.9704 41.8466 54.3872 43.4516 53.3699 44.7744C49.7334 49.4687 45.5572 53.7189 40.9274 57.4373C40.1808 58.1284 39.2345 58.5652 38.2242 58.6852C37.2139 58.8052 36.1916 58.6021 35.3039 58.1051C34.4203 57.7276 33.6753 57.0858 33.1713 56.2678C32.6672 55.4498 32.4288 54.4958 32.4888 53.5369C32.5958 52.3591 33.0848 51.2486 33.8813 50.3745C39.0585 45.4379 44.6677 40.9754 50.6416 37.0404C51.0329 36.7336 51.5107 36.5575 52.0075 36.5371C52.5043 36.5168 52.9949 36.6531 53.41 36.9268C53.9555 37.2656 54.3966 37.7488 54.6842 38.3229C54.9719 38.897 55.0949 39.5396 55.0396 40.1794ZM51.039 60.4193C50.9615 59.6812 51.0563 58.9351 51.3159 58.2398C51.5755 57.5445 51.9928 56.9188 52.5351 56.4121C57.6042 51.7366 63.0428 47.4784 68.7978 43.679C68.9715 43.5688 69.1318 43.4586 69.3221 43.3451C69.8248 42.9822 70.4339 42.7967 71.0535 42.8179C71.6732 42.839 72.2682 43.0656 72.745 43.462C73.2063 43.8528 73.5327 44.379 73.6777 44.9659C73.8228 45.5528 73.7792 46.1705 73.5531 46.7312C72.825 49.1563 71.4812 51.3514 69.6527 53.1027C65.9391 56.7612 62.1537 60.3462 58.2988 63.8555C57.7183 64.4525 56.9557 64.8395 56.1311 64.9556C55.3065 65.0717 54.4667 64.9102 53.7439 64.4967C52.9844 64.102 52.3377 63.5208 51.8646 62.8075C51.3914 62.0943 51.1073 61.2725 51.039 60.4193ZM75.1359 62.6266C74.2009 63.6284 73.2392 64.5835 72.3409 65.6087C72.0708 66.0049 71.8467 66.4307 71.673 66.8777C72.1672 67.0246 72.7449 67.412 73.1457 67.275C75.186 66.5905 77.1763 65.769 79.417 64.9041C78.9295 66.0261 78.5621 67.0613 78.0445 68.0097C75.9122 71.5933 73.2418 74.8279 70.1269 77.6004C68.9425 78.7425 67.7125 79.8344 66.4369 80.8763C65.7613 81.4369 64.949 81.808 64.083 81.9516C63.217 82.0953 62.3283 82.0063 61.508 81.6938C60.6876 81.3813 59.965 80.8564 59.4141 80.173C58.8631 79.4896 58.5036 78.6721 58.3723 77.8041C58.3188 77.3215 58.3614 76.8331 58.4979 76.3671C58.6343 75.9011 58.8617 75.4667 59.1671 75.0892C63.7114 70.1544 68.9048 65.8597 74.605 62.3228C74.6743 62.2959 74.7477 62.2812 74.822 62.2793L75.1359 62.6266Z" fill="#FF87AF"/>
<path d="M82.7964 49.326L88.5101 23.9468L92.5173 24.8851L90.4502 31.1665C88.5201 37.0104 86.5665 42.8543 84.6831 48.7049C84.3158 49.7868 83.8349 49.9872 82.7964 49.326ZM76.3447 64.253C76.9492 61.9455 77.5502 59.8116 78.0578 57.6544C78.5525 55.5624 79.4934 53.6019 80.8161 51.9073C81.6276 50.8421 82.5393 51.2662 83.4709 51.4966C84.3325 51.707 84.5496 52.3381 84.5863 53.1663C84.7222 55.4565 84.0247 57.7184 82.6227 59.5345C80.9537 61.6036 78.7963 63.2251 76.3447 64.253Z" fill="#FF6196"/>
<path d="M100.158 9.66426C100.208 8.92054 100.189 8.17379 100.101 7.43356C100.032 7.2268 99.8957 7.0492 99.7136 6.92932C99.5654 6.80878 99.3919 6.72318 99.2061 6.67887C99.0992 6.65883 98.9489 6.76903 98.8053 6.92598C98.6662 7.07498 98.5482 7.2424 98.4547 7.42355C98.3704 7.74378 98.3522 8.07783 98.4013 8.40532V23.339C93.9856 23.6524 89.57 22.7272 85.6516 20.6675C84.3705 20.0885 83.352 19.0516 82.796 17.7604C82.24 16.4692 82.1865 15.0168 82.6461 13.6882C83.1437 11.8081 83.6947 9.94477 84.2624 8.08474C84.3959 7.6406 84.4727 7.18311 84.2624 6.92264C84.1453 6.79584 83.9838 6.71925 83.8116 6.70892C83.591 6.7113 83.3773 6.78642 83.2038 6.92264C82.9541 7.07201 82.7551 7.2931 82.6328 7.55712C81.9649 9.56074 81.3772 11.5844 80.8662 13.6281C80.6733 14.4335 80.6214 15.2661 80.7126 16.0892C80.8418 17.5785 81.3957 18.9994 82.3084 20.1833C83.2212 21.3671 84.4545 22.2642 85.8619 22.768C86.4931 23.0318 86.8637 23.2922 86.6868 24.1237C86.443 25.179 86.2059 26.2342 85.9655 27.2928C84.3292 34.4658 82.7018 41.6421 81.0833 48.8217C81.0377 49.1418 80.8969 49.4409 80.6792 49.68C79.6125 50.5279 78.7162 51.5704 78.0378 52.7522C77.1733 54.3118 76.5751 56.0047 76.2679 57.7612C76.209 58.3215 76.0065 58.8572 75.6801 59.3164C75.3537 59.7756 74.9143 60.1428 74.4045 60.3826C73.012 61.0873 71.733 61.9989 70.1869 62.9473C70.29 61.088 70.2699 59.2239 70.1268 57.3672C70.0091 56.7961 70.0341 56.2047 70.1995 55.6455C70.365 55.0864 70.6657 54.5766 71.0752 54.1614C73.1119 52.1437 74.5636 49.6118 75.2761 46.8348C75.4889 46.1911 75.5473 45.5063 75.4465 44.8359C75.3456 44.1655 75.0885 43.5282 74.6958 42.9755C74.3031 42.4228 73.7858 41.9703 73.1859 41.6546C72.5859 41.3388 71.9201 41.1687 71.2422 41.1579C70.1446 41.1457 69.067 41.4519 68.1399 42.0395C64.9534 44.2154 61.8223 46.4713 58.7496 48.805C56.9229 50.1809 55.2032 51.7036 53.4333 53.1462C53.357 53.0643 53.2909 52.9735 53.2363 52.8757C53.2024 52.6299 53.1362 52.3896 53.0392 52.1611C51.5599 49.877 52.5851 48.2173 54.1913 46.5109C55.8647 44.7568 56.7894 42.42 56.7693 39.9958C56.8212 38.7606 56.4344 37.5469 55.6773 36.5696C55.2741 36.0735 54.7771 35.6616 54.2147 35.3574C53.4159 34.9202 52.5025 34.7377 51.5971 34.8344C50.6916 34.9311 49.8373 35.3024 49.1489 35.8984L48.2172 36.5662C46.09 38.089 43.9361 39.5717 41.8891 41.2013C38.9007 43.5872 35.9766 46.0525 33.1199 48.5947C31.7841 49.7735 30.809 51.383 29.4232 52.4784C22.1968 58.1853 14.8936 63.7888 7.61711 69.429C7.3669 69.5783 7.13684 69.7589 6.93254 69.9666C6.9115 69.997 6.8936 70.0295 6.87911 70.0635C6.7255 70.4208 6.59526 71.0119 6.77559 71.2289C6.81979 71.276 6.87321 71.3136 6.93254 71.3391C7.25064 71.4712 7.60466 71.4889 7.93435 71.3892C8.37117 71.1626 8.77184 70.8722 9.12316 70.5277L29.4933 54.7391C29.8573 54.4553 30.2414 54.1981 30.6855 53.8776C30.8049 55.2083 31.2983 56.478 32.1086 57.5403C32.9189 58.6026 34.0132 59.414 35.265 59.8808C36.5168 60.3477 37.8752 60.451 39.1832 60.1787C40.4912 59.9065 41.6955 59.2698 42.6571 58.3423C44.9947 56.0916 47.4091 53.9076 49.79 51.6936L50.6583 50.8788C52.1142 53.7273 51.9673 54.4786 49.7299 56.2719C35.9806 67.274 22.2413 78.2783 8.51206 89.2849C7.92767 89.7524 6.77225 90.1765 7.53028 91.1717C8.28832 92.1668 8.98625 91.1416 9.5673 90.6774C22.4484 80.3899 35.3205 70.0891 48.1838 59.7749C48.5177 59.5077 48.8684 59.2706 49.3526 58.9167V59.9986C49.2871 61.2488 49.5951 62.4901 50.2373 63.5647C50.8796 64.6393 51.827 65.4984 52.9591 66.0329C54.0687 66.5966 55.3285 66.7939 56.5574 66.5965C57.7863 66.3991 58.9209 65.8171 59.7981 64.9342C62.4463 62.5966 65.0677 60.2123 67.7024 57.8547C67.8694 57.7045 68.0631 57.5909 68.3703 57.3572C68.7472 59.6525 68.6735 61.9992 68.1532 64.2663C68.0248 64.5677 67.8142 64.827 67.5455 65.0144C65.3682 66.8955 63.1831 68.7689 60.9903 70.6345L28.8255 97.9372C28.4489 98.1885 28.1161 98.4998 27.8403 98.8589C27.7523 99.0227 27.703 99.2044 27.696 99.3902C27.6891 99.576 27.7248 99.7609 27.8003 99.9308C27.9512 100.044 28.1256 100.121 28.3106 100.158C28.4956 100.194 28.6864 100.189 28.8689 100.141C29.0129 100.099 29.1454 100.025 29.2562 99.9242C29.4232 99.7906 29.5902 99.6203 29.7404 99.4834L52.9925 79.7811C54.1112 78.8327 55.2399 77.8977 56.4187 76.9092C56.4784 77.068 56.5264 77.2309 56.5623 77.3968C56.629 78.6857 57.0728 79.9267 57.8386 80.9656C58.6045 82.0045 59.6586 82.7956 60.8701 83.2406C62.0669 83.7605 63.3932 83.9051 64.6739 83.6553C65.9546 83.4055 67.1294 82.773 68.043 81.8415C69.5925 80.4289 71.1219 78.993 72.6581 77.5637C73.6599 76.6454 74.6283 75.7237 75.6835 74.7319C75.8801 75.4174 76.0395 76.113 76.161 76.8157C76.3146 78.4513 76.0889 80.1002 75.5016 81.6344C74.9144 83.1685 73.9813 84.5467 72.7749 85.6617C68.9046 89.8292 64.9474 93.9066 61.0237 98.0174C60.7666 98.2845 60.4126 98.5049 60.2723 98.8222C60.1321 99.1394 60.0419 99.7605 60.2089 99.8941L60.2556 99.9242C60.6058 100.094 60.9995 100.154 61.3843 100.094C61.4922 100.072 61.5883 100.012 61.6548 99.9242C61.7483 99.8273 61.8385 99.7071 61.9287 99.6169C65.1077 96.331 68.3035 93.0617 71.4592 89.7524C72.733 88.4619 73.9305 87.0982 75.0457 85.6684C76.4999 84.0585 77.4641 82.0669 77.8249 79.9278C78.1858 77.7887 77.9283 75.591 77.0827 73.5932C76.9918 73.1478 77.0806 72.6844 77.3298 72.3042C77.5469 71.9302 77.7873 71.5662 78.0344 71.2056C78.8251 70.1789 79.4837 69.057 79.9947 67.8662C80.982 64.9435 82.4977 62.227 84.4661 59.8517C85.371 58.7044 85.9936 57.3604 86.2836 55.9282C86.5737 54.4961 86.523 53.0158 86.1358 51.6068C85.9989 51.0711 85.9989 50.5095 86.1358 49.9738C87.8255 44.741 89.5653 39.5249 91.2884 34.3055L93.5926 27.3128L94.3039 25.1523C95.8199 25.1523 97.2492 25.1222 98.6718 25.1523C99.8539 25.1857 100.215 24.6313 100.201 23.4826C100.131 18.8743 100.158 14.2693 100.158 9.66426ZM40.9273 57.4373C40.1807 58.1284 39.2344 58.5653 38.2241 58.6853C37.2139 58.8053 36.1916 58.6022 35.3038 58.1052C34.4203 57.7277 33.6753 57.0859 33.1712 56.2679C32.6671 55.4499 32.4287 54.4959 32.4888 53.5369C32.5957 52.3592 33.0847 51.2486 33.8813 50.3745C39.0584 45.438 44.6676 40.9754 50.6416 37.0404C50.9676 36.8099 51.3385 36.6506 51.7302 36.5729C51.9929 36.5245 52.2623 36.5245 52.525 36.5729C52.8396 36.6342 53.1398 36.7543 53.4099 36.9269C53.956 37.2659 54.3974 37.7497 54.6851 38.3244C54.9727 38.8992 55.0954 39.5425 55.0395 40.1828C54.9703 41.85 54.3871 43.455 53.3698 44.7778C49.7331 49.4709 45.5569 53.72 40.9273 57.4373ZM58.2921 63.879C57.7115 64.476 56.9489 64.863 56.1243 64.979C55.2997 65.0951 54.46 64.9337 53.7372 64.5201C52.9763 64.1246 52.3287 63.5418 51.8555 62.8267C51.3823 62.1115 51.0989 61.2877 51.0323 60.4327C50.9548 59.6946 51.0495 58.9485 51.3091 58.2532C51.5687 57.5579 51.986 56.9322 52.5283 56.4255C57.5974 51.7501 63.036 47.4919 68.7911 43.6925C68.9647 43.5823 69.125 43.4721 69.3153 43.3585C69.818 42.9956 70.4271 42.8102 71.0468 42.8313C71.6664 42.8525 72.2614 43.0791 72.7382 43.4754C73.1995 43.8662 73.5259 44.3924 73.671 44.9793C73.8161 45.5662 73.7724 46.184 73.5463 46.7447C72.8182 49.1697 71.4745 51.3648 69.6459 53.1162C65.9626 56.7962 62.1324 60.3392 58.2988 63.8656L58.2921 63.879ZM78.0311 68.0231C75.9017 71.6011 73.2359 74.8311 70.1268 77.6005C68.9424 78.7425 67.7124 79.8345 66.4368 80.8764C65.7613 81.437 64.9489 81.8081 64.0829 81.9517C63.2169 82.0953 62.3283 82.0064 61.5079 81.6938C60.6876 81.3813 59.965 80.8565 59.414 80.1731C58.8631 79.4896 58.5035 78.6721 58.3722 77.8042C58.3187 77.3215 58.3614 76.8331 58.4978 76.3671C58.6342 75.9011 58.8617 75.4668 59.167 75.0892C63.7113 70.1545 68.9047 65.8598 74.6049 62.3228C74.6742 62.2959 74.7477 62.2813 74.822 62.2794L75.1559 62.6133C74.2209 63.6152 73.2591 64.5702 72.3609 65.5954C72.0907 65.9916 71.8667 66.4174 71.693 66.8644C72.1872 67.0113 72.7649 67.3987 73.1656 67.2618C74.7786 66.7208 76.3648 66.093 78.0645 65.4251L79.437 64.8908C78.9227 66.0262 78.5554 67.0614 78.0378 68.0098L78.0311 68.0231ZM82.6161 59.5578C81.3704 61.1436 79.8092 62.4536 78.0311 63.4048C77.4812 63.712 76.9169 63.9992 76.338 64.2663C76.9324 61.9922 77.5269 59.8851 78.0311 57.7546L78.0511 57.6677C78.5458 55.5757 79.4867 53.6153 80.8095 51.9207C81.6209 50.8554 82.5326 51.2795 83.4643 51.5099C84.3258 51.7203 84.5429 52.3515 84.5796 53.1796C84.7165 55.4678 84.0215 57.7284 82.6227 59.5445L82.6161 59.5578ZM90.4302 31.1732C88.5 37.0171 86.5465 42.861 84.6631 48.7115C84.3091 49.8102 83.8283 50.0106 82.7897 49.3494L87.742 27.3329L88.5034 23.9534L92.5106 24.8918L91.7058 27.3329L90.4302 31.1732Z" fill="black"/>
</svg>
