<svg width="99" height="102" viewBox="0 0 99 102" fill="none" xmlns="http://www.w3.org/2000/svg">
<path d="M94.3611 0H4.63886C2.07689 0 0 2.13982 0 4.77943V97.2206C0 99.8602 2.07689 102 4.63886 102H94.3611C96.9231 102 99 99.8602 99 97.2206V4.77943C99 2.13982 96.9231 0 94.3611 0Z" fill="#3178C6"/>
<path fill-rule="evenodd" clip-rule="evenodd" d="M57.1905 78.9792V90.1955C59.1468 91.2014 61.2316 91.9093 63.3811 92.2977C65.8651 92.7754 68.3864 93.0104 70.9123 92.9996C73.3741 93.0118 75.8303 92.7532 78.24 92.2282C80.4035 91.7728 82.4677 90.9052 84.3289 89.6691C86.0567 88.5072 87.4807 86.9169 88.4735 85.0407C90.2514 81.1557 90.486 76.6968 89.1262 72.6326C88.5524 71.1128 87.6975 69.7253 86.61 68.549C85.4427 67.2981 84.1167 66.2194 82.6689 65.3427C81.0021 64.3258 79.2702 63.4292 77.4855 62.6593C76.0817 62.0524 74.8183 61.4626 73.6953 60.8899C72.6978 60.3924 71.7433 59.8065 70.8421 59.1387C70.1363 58.6233 69.5233 57.9822 69.0313 57.2449C68.6061 56.5756 68.3848 55.7881 68.3961 54.9856C68.3867 54.247 68.5843 53.5215 68.9646 52.8981C69.3777 52.2456 69.9287 51.7003 70.5754 51.3041C71.366 50.8192 72.2262 50.4699 73.1233 50.2695C74.2245 50.0146 75.3502 49.892 76.4783 49.9039C77.427 49.9073 78.3744 49.9782 79.3139 50.1159C80.3284 50.2588 81.3322 50.4751 82.318 50.763C83.3206 51.0525 84.3013 51.4191 85.2518 51.8598C86.1742 52.2881 87.0565 52.8046 87.8874 53.4026V42.9358C86.1577 42.254 84.3638 41.7639 82.5355 41.4734C80.3278 41.1388 78.0986 40.9811 75.8676 41.0018C73.429 40.9881 70.9975 41.2765 68.6242 41.8609C66.479 42.3716 64.4393 43.2792 62.602 44.5407C60.8953 45.7251 59.4861 47.3185 58.4925 49.1873C57.4395 51.2627 56.9186 53.586 56.9799 55.9325C56.9022 59.0355 57.8833 62.0668 59.7489 64.4873C62.0377 67.171 64.9238 69.2285 68.1539 70.4793C69.6279 71.113 71.0024 71.7333 72.2775 72.3401C73.4279 72.8734 74.5337 73.5056 75.5834 74.2302C76.43 74.8039 77.1735 75.5278 77.7803 76.3689C78.3138 77.1319 78.5968 78.0537 78.5874 78.9975C78.5923 79.7048 78.418 80.4009 78.0821 81.0156C77.7089 81.6761 77.1844 82.23 76.5555 82.6278C75.7685 83.1276 74.9076 83.4883 74.0076 83.6953C72.8353 83.9684 71.6362 84.0972 70.435 84.0792C68.0778 84.0747 65.7393 83.6417 63.525 82.7996C61.2116 81.93 59.0663 80.6362 57.1905 78.9792ZM39.1029 51.0555H53.1406V41.8171H14V51.0555H27.9745V92.1989H39.1029V51.0555Z" fill="white"/>
</svg>
